<?xml version="1.0" encoding="utf-8"?>
<!-- Uploaded to: SVG Repo, www.svgrepo.com, Generator: SVG Repo Mixer Tools -->
<svg fill="#000000" width="800px" height="800px" viewBox="0 0 32 32" version="1.1" xmlns="http://www.w3.org/2000/svg">
<title>calendar-striped</title>
<path d="M28 4.75h-0.75v-2.75c0-0.69-0.56-1.25-1.25-1.25s-1.25 0.56-1.25 1.25v0 2.75h-17.5v-2.75c0-0.69-0.56-1.25-1.25-1.25s-1.25 0.56-1.25 1.25v0 2.75h-0.75c-1.794 0.002-3.248 1.456-3.25 3.25v19.998c0.002 1.794 1.456 3.248 3.25 3.25h24c1.794-0.001 3.249-1.456 3.25-3.25v-19.998c-0.002-1.794-1.456-3.248-3.25-3.25h-0zM14.75 13.25v3.5h-5.5v-3.5zM22.75 13.25v3.5h-5.5v-3.5zM28.75 13.25v3.5h-3.5v-3.5zM6.75 16.75h-3.5v-3.5h3.5zM3.25 19.25h3.5v3.5h-3.5zM9.25 19.25h5.5v3.5h-5.5zM14.75 25.25v3.498h-5.5v-3.498zM17.25 25.25h5.5v3.498h-5.5zM17.25 22.75v-3.5h5.5v3.5zM25.25 19.25h3.5v3.5h-3.5zM4 7.25h24c0.414 0 0.75 0.336 0.75 0.75v2.75h-25.5v-2.75c0.001-0.414 0.336-0.749 0.75-0.75h0zM3.25 27.998v-2.748h3.5v3.498h-2.75c-0.414-0-0.75-0.336-0.75-0.75v-0zM28 28.748h-2.75v-3.498h3.5v2.748c-0 0.414-0.336 0.75-0.75 0.75v0z"></path>
</svg>